<svg width="34" height="34" viewBox="0 0 34 34" fill="none" xmlns="http://www.w3.org/2000/svg">
<path d="M1.67221 1.96176L1.67206 1.96191C1.0052 2.63018 0.669629 3.44304 0.669629 4.38918V29.9292C0.669629 30.8766 1.00515 31.6895 1.67221 32.3566C2.33933 33.0237 3.15299 33.3592 4.10163 33.3592H29.6396C30.587 33.3592 31.4 33.0237 32.0671 32.3566L32.0672 32.3565C32.7341 31.6882 33.0696 30.8753 33.0696 29.9292V4.39118C33.0696 3.44254 32.7342 2.62888 32.0671 1.96176L32.0669 1.96161C31.3986 1.29475 30.5858 0.95918 29.6396 0.95918H4.10163C3.15299 0.95918 2.33933 1.29464 1.67221 1.96176ZM29.6396 30.9592H18.0696V18.3592H30.6696V29.9292C30.6696 30.2406 30.5715 30.4825 30.3822 30.6718C30.193 30.861 29.9511 30.9592 29.6396 30.9592ZM30.6696 4.39118V15.9592H18.0696V3.35918H29.6396C29.9511 3.35918 30.193 3.45735 30.3822 3.6466C30.5713 3.8357 30.6696 4.07819 30.6696 4.39118ZM4.10163 3.35918H15.6696V15.9592H3.06963V4.39118C3.06963 4.07819 3.16795 3.8357 3.35705 3.6466C3.54615 3.4575 3.78864 3.35918 4.10163 3.35918ZM3.06963 29.9292V18.3592H15.6696V30.9592H4.10163C3.78864 30.9592 3.54615 30.8609 3.35705 30.6718C3.1678 30.4825 3.06963 30.2406 3.06963 29.9292Z" fill="#057472" stroke="#057472" stroke-width="0.4"/>
</svg>
