<svg width="35" height="33" viewBox="0 0 35 33" fill="none" xmlns="http://www.w3.org/2000/svg">
<path d="M32.4805 0.15918H2.94201C2.28917 0.15918 1.66306 0.41852 1.20144 0.880148C0.739809 1.34178 0.480469 1.96788 0.480469 2.62072V22.313C0.480469 22.9659 0.739809 23.592 1.20144 24.0536C1.66306 24.5152 2.28917 24.7746 2.94201 24.7746H12.7882V29.6976H7.86508V32.1592H27.5574V29.6976H22.6343V24.7746H32.4805C33.1333 24.7746 33.7594 24.5152 34.221 24.0536C34.6827 23.592 34.942 22.9659 34.942 22.313V2.62072C34.942 1.96788 34.6827 1.34178 34.221 0.880148C33.7594 0.41852 33.1333 0.15918 32.4805 0.15918ZM20.1728 29.6976H15.2497V24.7746H20.1728V29.6976ZM32.4805 22.313H2.94201V2.62072H32.4805V22.313Z" fill="#057472"/>
</svg>
