<svg width="21" height="22" viewBox="0 0 21 22" fill="none" xmlns="http://www.w3.org/2000/svg">
<mask id="path-1-outside-1_9_823" maskUnits="userSpaceOnUse" x="-0.447266" y="0.182617" width="22" height="22" fill="black">
<rect fill="white" x="-0.447266" y="0.182617" width="22" height="22"/>
<path d="M12.5844 21.1826C12.7396 21.1826 12.8908 21.1334 13.0162 21.0419C13.1416 20.9505 13.2347 20.8217 13.2822 20.674L14.0884 18.1688C14.427 18.0031 14.751 17.817 15.0603 17.6074L17.6344 18.1615C17.7861 18.1939 17.9443 18.1773 18.086 18.114C18.2277 18.0508 18.3457 17.9442 18.423 17.8096L20.4547 14.293C20.5323 14.1585 20.5651 14.0029 20.5485 13.8485C20.5319 13.6941 20.4667 13.549 20.3623 13.434L18.596 11.4844C18.6217 11.1106 18.6217 10.7354 18.596 10.3616L20.3623 8.40902C20.4667 8.29409 20.5319 8.14896 20.5485 7.99458C20.5651 7.84019 20.5323 7.68453 20.4547 7.55002L18.423 4.03193C18.3455 3.89762 18.2274 3.79135 18.0857 3.7284C17.944 3.66544 17.786 3.64906 17.6344 3.68159L15.0603 4.23569C14.7525 4.02754 14.427 3.83991 14.0899 3.67426L13.2822 1.16909C13.2347 1.02136 13.1416 0.892511 13.0162 0.801102C12.8908 0.709692 12.7396 0.660439 12.5844 0.660433H8.52104C8.36586 0.660439 8.2147 0.709692 8.0893 0.801102C7.96391 0.892511 7.87077 1.02136 7.82328 1.16909L7.01852 3.6728C6.68083 3.83796 6.3551 4.02654 6.04372 4.23716L3.47111 3.68159C3.31935 3.64919 3.16121 3.6658 3.01948 3.72902C2.87776 3.79224 2.75975 3.89882 2.68248 4.0334L0.65078 7.55002C0.573198 7.68453 0.540337 7.84019 0.556934 7.99458C0.573532 8.14896 0.638731 8.29409 0.74313 8.40902L2.5095 10.3616C2.48391 10.7344 2.48391 11.1086 2.5095 11.4815L0.74313 13.434C0.638731 13.549 0.573532 13.6941 0.556934 13.8485C0.540337 14.0029 0.573198 14.1585 0.65078 14.293L2.68248 17.8111C2.75997 17.9454 2.87806 18.0517 3.01977 18.1147C3.16148 18.1776 3.3195 18.194 3.47111 18.1615L6.04372 17.6059C6.35448 17.8155 6.6799 18.0046 7.01852 18.1703L7.82475 20.674C7.87208 20.8212 7.96478 20.9497 8.08958 21.0411C8.21439 21.1325 8.3649 21.182 8.51957 21.1826H12.583H12.5844ZM12.0479 19.7167H9.05755L8.22493 17.1266L7.6635 16.8524C7.3875 16.7174 7.12107 16.5636 6.86607 16.3922L6.34715 16.0403L3.68513 16.615L2.18994 14.0233L4.01495 12.0033L3.97098 11.3818C3.94991 11.0753 3.94991 10.7677 3.97098 10.4612L4.01495 9.83971L2.18701 7.81974L3.68367 5.22809L6.34569 5.80124L6.8646 5.4509C7.1196 5.27946 7.38604 5.12567 7.66204 4.99062L8.22347 4.7165L9.05755 2.1263H12.0509L12.8864 4.71796L13.4464 4.99062C13.7221 5.12534 13.988 5.27914 14.2423 5.4509L14.7598 5.80124L17.4233 5.22809L18.9185 7.81974L17.092 9.83971L17.136 10.4612C17.1571 10.7682 17.1571 11.0763 17.136 11.3833L17.092 12.0048L18.9199 14.0233L17.4233 16.615L14.7598 16.0433L14.2423 16.3922C13.988 16.5639 13.7221 16.7177 13.4464 16.8524L12.8864 17.1251L12.0494 19.7167H12.0479ZM10.5527 15.3191C11.7191 15.3191 12.8376 14.8558 13.6623 14.0311C14.487 13.2064 14.9503 12.0878 14.9503 10.9215C14.9503 9.75521 14.487 8.63666 13.6623 7.81194C12.8376 6.98723 11.7191 6.52391 10.5527 6.52391C9.38642 6.52391 8.26787 6.98723 7.44315 7.81194C6.61844 8.63666 6.15512 9.75521 6.15512 10.9215C6.15512 12.0878 6.61844 13.2064 7.44315 14.0311C8.26787 14.8558 9.38642 15.3191 10.5527 15.3191ZM10.5527 13.8533C9.77519 13.8533 9.02949 13.5444 8.47968 12.9946C7.92987 12.4448 7.62099 11.6991 7.62099 10.9215C7.62099 10.144 7.92987 9.39828 8.47968 8.84847C9.02949 8.29866 9.77519 7.98979 10.5527 7.98979C11.3303 7.98979 12.076 8.29866 12.6258 8.84847C13.1756 9.39828 13.4845 10.144 13.4845 10.9215C13.4845 11.6991 13.1756 12.4448 12.6258 12.9946C12.076 13.5444 11.3303 13.8533 10.5527 13.8533Z"/>
</mask>
<path d="M12.5844 21.1826C12.7396 21.1826 12.8908 21.1334 13.0162 21.0419C13.1416 20.9505 13.2347 20.8217 13.2822 20.674L14.0884 18.1688C14.427 18.0031 14.751 17.817 15.0603 17.6074L17.6344 18.1615C17.7861 18.1939 17.9443 18.1773 18.086 18.114C18.2277 18.0508 18.3457 17.9442 18.423 17.8096L20.4547 14.293C20.5323 14.1585 20.5651 14.0029 20.5485 13.8485C20.5319 13.6941 20.4667 13.549 20.3623 13.434L18.596 11.4844C18.6217 11.1106 18.6217 10.7354 18.596 10.3616L20.3623 8.40902C20.4667 8.29409 20.5319 8.14896 20.5485 7.99458C20.5651 7.84019 20.5323 7.68453 20.4547 7.55002L18.423 4.03193C18.3455 3.89762 18.2274 3.79135 18.0857 3.7284C17.944 3.66544 17.786 3.64906 17.6344 3.68159L15.0603 4.23569C14.7525 4.02754 14.427 3.83991 14.0899 3.67426L13.2822 1.16909C13.2347 1.02136 13.1416 0.892511 13.0162 0.801102C12.8908 0.709692 12.7396 0.660439 12.5844 0.660433H8.52104C8.36586 0.660439 8.2147 0.709692 8.0893 0.801102C7.96391 0.892511 7.87077 1.02136 7.82328 1.16909L7.01852 3.6728C6.68083 3.83796 6.3551 4.02654 6.04372 4.23716L3.47111 3.68159C3.31935 3.64919 3.16121 3.6658 3.01948 3.72902C2.87776 3.79224 2.75975 3.89882 2.68248 4.0334L0.65078 7.55002C0.573198 7.68453 0.540337 7.84019 0.556934 7.99458C0.573532 8.14896 0.638731 8.29409 0.74313 8.40902L2.5095 10.3616C2.48391 10.7344 2.48391 11.1086 2.5095 11.4815L0.74313 13.434C0.638731 13.549 0.573532 13.6941 0.556934 13.8485C0.540337 14.0029 0.573198 14.1585 0.65078 14.293L2.68248 17.8111C2.75997 17.9454 2.87806 18.0517 3.01977 18.1147C3.16148 18.1776 3.3195 18.194 3.47111 18.1615L6.04372 17.6059C6.35448 17.8155 6.6799 18.0046 7.01852 18.1703L7.82475 20.674C7.87208 20.8212 7.96478 20.9497 8.08958 21.0411C8.21439 21.1325 8.3649 21.182 8.51957 21.1826H12.583H12.5844ZM12.0479 19.7167H9.05755L8.22493 17.1266L7.6635 16.8524C7.3875 16.7174 7.12107 16.5636 6.86607 16.3922L6.34715 16.0403L3.68513 16.615L2.18994 14.0233L4.01495 12.0033L3.97098 11.3818C3.94991 11.0753 3.94991 10.7677 3.97098 10.4612L4.01495 9.83971L2.18701 7.81974L3.68367 5.22809L6.34569 5.80124L6.8646 5.4509C7.1196 5.27946 7.38604 5.12567 7.66204 4.99062L8.22347 4.7165L9.05755 2.1263H12.0509L12.8864 4.71796L13.4464 4.99062C13.7221 5.12534 13.988 5.27914 14.2423 5.4509L14.7598 5.80124L17.4233 5.22809L18.9185 7.81974L17.092 9.83971L17.136 10.4612C17.1571 10.7682 17.1571 11.0763 17.136 11.3833L17.092 12.0048L18.9199 14.0233L17.4233 16.615L14.7598 16.0433L14.2423 16.3922C13.988 16.5639 13.7221 16.7177 13.4464 16.8524L12.8864 17.1251L12.0494 19.7167H12.0479ZM10.5527 15.3191C11.7191 15.3191 12.8376 14.8558 13.6623 14.0311C14.487 13.2064 14.9503 12.0878 14.9503 10.9215C14.9503 9.75521 14.487 8.63666 13.6623 7.81194C12.8376 6.98723 11.7191 6.52391 10.5527 6.52391C9.38642 6.52391 8.26787 6.98723 7.44315 7.81194C6.61844 8.63666 6.15512 9.75521 6.15512 10.9215C6.15512 12.0878 6.61844 13.2064 7.44315 14.0311C8.26787 14.8558 9.38642 15.3191 10.5527 15.3191ZM10.5527 13.8533C9.77519 13.8533 9.02949 13.5444 8.47968 12.9946C7.92987 12.4448 7.62099 11.6991 7.62099 10.9215C7.62099 10.144 7.92987 9.39828 8.47968 8.84847C9.02949 8.29866 9.77519 7.98979 10.5527 7.98979C11.3303 7.98979 12.076 8.29866 12.6258 8.84847C13.1756 9.39828 13.4845 10.144 13.4845 10.9215C13.4845 11.6991 13.1756 12.4448 12.6258 12.9946C12.076 13.5444 11.3303 13.8533 10.5527 13.8533Z" fill="black"/>
<path d="M12.5844 21.1826C12.7396 21.1826 12.8908 21.1334 13.0162 21.0419C13.1416 20.9505 13.2347 20.8217 13.2822 20.674L14.0884 18.1688C14.427 18.0031 14.751 17.817 15.0603 17.6074L17.6344 18.1615C17.7861 18.1939 17.9443 18.1773 18.086 18.114C18.2277 18.0508 18.3457 17.9442 18.423 17.8096L20.4547 14.293C20.5323 14.1585 20.5651 14.0029 20.5485 13.8485C20.5319 13.6941 20.4667 13.549 20.3623 13.434L18.596 11.4844C18.6217 11.1106 18.6217 10.7354 18.596 10.3616L20.3623 8.40902C20.4667 8.29409 20.5319 8.14896 20.5485 7.99458C20.5651 7.84019 20.5323 7.68453 20.4547 7.55002L18.423 4.03193C18.3455 3.89762 18.2274 3.79135 18.0857 3.7284C17.944 3.66544 17.786 3.64906 17.6344 3.68159L15.0603 4.23569C14.7525 4.02754 14.427 3.83991 14.0899 3.67426L13.2822 1.16909C13.2347 1.02136 13.1416 0.892511 13.0162 0.801102C12.8908 0.709692 12.7396 0.660439 12.5844 0.660433H8.52104C8.36586 0.660439 8.2147 0.709692 8.0893 0.801102C7.96391 0.892511 7.87077 1.02136 7.82328 1.16909L7.01852 3.6728C6.68083 3.83796 6.3551 4.02654 6.04372 4.23716L3.47111 3.68159C3.31935 3.64919 3.16121 3.6658 3.01948 3.72902C2.87776 3.79224 2.75975 3.89882 2.68248 4.0334L0.65078 7.55002C0.573198 7.68453 0.540337 7.84019 0.556934 7.99458C0.573532 8.14896 0.638731 8.29409 0.74313 8.40902L2.5095 10.3616C2.48391 10.7344 2.48391 11.1086 2.5095 11.4815L0.74313 13.434C0.638731 13.549 0.573532 13.6941 0.556934 13.8485C0.540337 14.0029 0.573198 14.1585 0.65078 14.293L2.68248 17.8111C2.75997 17.9454 2.87806 18.0517 3.01977 18.1147C3.16148 18.1776 3.3195 18.194 3.47111 18.1615L6.04372 17.6059C6.35448 17.8155 6.6799 18.0046 7.01852 18.1703L7.82475 20.674C7.87208 20.8212 7.96478 20.9497 8.08958 21.0411C8.21439 21.1325 8.3649 21.182 8.51957 21.1826H12.583H12.5844ZM12.0479 19.7167H9.05755L8.22493 17.1266L7.6635 16.8524C7.3875 16.7174 7.12107 16.5636 6.86607 16.3922L6.34715 16.0403L3.68513 16.615L2.18994 14.0233L4.01495 12.0033L3.97098 11.3818C3.94991 11.0753 3.94991 10.7677 3.97098 10.4612L4.01495 9.83971L2.18701 7.81974L3.68367 5.22809L6.34569 5.80124L6.8646 5.4509C7.1196 5.27946 7.38604 5.12567 7.66204 4.99062L8.22347 4.7165L9.05755 2.1263H12.0509L12.8864 4.71796L13.4464 4.99062C13.7221 5.12534 13.988 5.27914 14.2423 5.4509L14.7598 5.80124L17.4233 5.22809L18.9185 7.81974L17.092 9.83971L17.136 10.4612C17.1571 10.7682 17.1571 11.0763 17.136 11.3833L17.092 12.0048L18.9199 14.0233L17.4233 16.615L14.7598 16.0433L14.2423 16.3922C13.988 16.5639 13.7221 16.7177 13.4464 16.8524L12.8864 17.1251L12.0494 19.7167H12.0479ZM10.5527 15.3191C11.7191 15.3191 12.8376 14.8558 13.6623 14.0311C14.487 13.2064 14.9503 12.0878 14.9503 10.9215C14.9503 9.75521 14.487 8.63666 13.6623 7.81194C12.8376 6.98723 11.7191 6.52391 10.5527 6.52391C9.38642 6.52391 8.26787 6.98723 7.44315 7.81194C6.61844 8.63666 6.15512 9.75521 6.15512 10.9215C6.15512 12.0878 6.61844 13.2064 7.44315 14.0311C8.26787 14.8558 9.38642 15.3191 10.5527 15.3191ZM10.5527 13.8533C9.77519 13.8533 9.02949 13.5444 8.47968 12.9946C7.92987 12.4448 7.62099 11.6991 7.62099 10.9215C7.62099 10.144 7.92987 9.39828 8.47968 8.84847C9.02949 8.29866 9.77519 7.98979 10.5527 7.98979C11.3303 7.98979 12.076 8.29866 12.6258 8.84847C13.1756 9.39828 13.4845 10.144 13.4845 10.9215C13.4845 11.6991 13.1756 12.4448 12.6258 12.9946C12.076 13.5444 11.3303 13.8533 10.5527 13.8533Z" stroke="black" stroke-width="0.8" mask="url(#path-1-outside-1_9_823)"/>
</svg>
