<svg width="34" height="35" viewBox="0 0 34 35" fill="none" xmlns="http://www.w3.org/2000/svg">
<path d="M20.5046 34.1621C20.7619 34.1621 21.0126 34.0804 21.2206 33.9288C21.4285 33.7772 21.583 33.5636 21.6617 33.3186L22.9987 29.1641C23.5603 28.8894 24.0975 28.5807 24.6104 28.2331L28.8792 29.152C29.1308 29.2057 29.3931 29.1782 29.6281 29.0733C29.8632 28.9685 30.0588 28.7917 30.187 28.5685L33.5563 22.7367C33.6849 22.5137 33.7394 22.2555 33.7119 21.9995C33.6844 21.7435 33.5763 21.5028 33.4031 21.3122L30.4739 18.079C30.5165 17.4591 30.5165 16.8369 30.4739 16.217L33.4031 12.9789C33.5763 12.7883 33.6844 12.5477 33.7119 12.2916C33.7394 12.0356 33.6849 11.7775 33.5563 11.5544L30.187 5.72018C30.0585 5.49744 29.8627 5.3212 29.6277 5.2168C29.3926 5.1124 29.1306 5.08523 28.8792 5.13918L24.6104 6.05808C24.0999 5.71288 23.5603 5.40172 23.0012 5.12703L21.6617 0.972561C21.583 0.727573 21.4285 0.513897 21.2206 0.362305C21.0126 0.210716 20.7619 0.129036 20.5046 0.129028H13.766C13.5087 0.129036 13.258 0.210716 13.0501 0.362305C12.8421 0.513897 12.6877 0.727573 12.6089 0.972561L11.2743 5.1246C10.7143 5.3985 10.1741 5.71123 9.65776 6.06051L5.39147 5.13918C5.13978 5.08545 4.87754 5.11299 4.6425 5.21783C4.40747 5.32268 4.21178 5.49942 4.08363 5.72261L0.714352 11.5544C0.585694 11.7775 0.531198 12.0356 0.558723 12.2916C0.586248 12.5477 0.694371 12.7883 0.867501 12.9789L3.79678 16.217C3.75433 16.8353 3.75433 17.4558 3.79678 18.0742L0.867501 21.3122C0.694371 21.5028 0.586248 21.7435 0.558723 21.9995C0.531198 22.2555 0.585694 22.5137 0.714352 22.7367L4.08363 28.571C4.21214 28.7937 4.40797 28.9699 4.64298 29.0743C4.87798 29.1787 5.14004 29.2059 5.39147 29.152L9.65776 28.2306C10.1731 28.5783 10.7128 28.8918 11.2743 29.1665L12.6113 33.3186C12.6898 33.5628 12.8436 33.7759 13.0505 33.9274C13.2575 34.0789 13.5071 34.1611 13.7636 34.1621H20.5022H20.5046ZM19.6149 31.7312H14.6558L13.275 27.4357L12.3439 26.9811C11.8862 26.7572 11.4444 26.5021 11.0215 26.2178L10.161 25.6344L5.74639 26.5873L3.26683 22.2894L6.29335 18.9396L6.22042 17.9089C6.18548 17.4006 6.18548 16.8905 6.22042 16.3823L6.29335 15.3515L3.26197 12.0017L5.74396 7.70382L10.1585 8.65431L11.0191 8.07332C11.442 7.78901 11.8838 7.53398 12.3415 7.31001L13.2726 6.85542L14.6558 2.55996H19.6197L21.0054 6.85785L21.934 7.31001C22.3912 7.53343 22.8323 7.78849 23.254 8.07332L24.1121 8.65431L28.5291 7.70382L31.0087 12.0017L27.9797 15.3515L28.0526 16.3823C28.0877 16.8913 28.0877 17.4022 28.0526 17.9113L27.9797 18.942L31.0111 22.2894L28.5291 26.5873L24.1121 25.6393L23.254 26.2178C22.8323 26.5026 22.3912 26.7577 21.934 26.9811L21.0054 27.4333L19.6173 31.7312H19.6149ZM17.1353 24.4384C19.0695 24.4384 20.9244 23.67 22.2921 22.3024C23.6598 20.9347 24.4281 19.0797 24.4281 17.1456C24.4281 15.2114 23.6598 13.3564 22.2921 11.9888C20.9244 10.6211 19.0695 9.85276 17.1353 9.85276C15.2011 9.85276 13.3462 10.6211 11.9785 11.9888C10.6109 13.3564 9.84251 15.2114 9.84251 17.1456C9.84251 19.0797 10.6109 20.9347 11.9785 22.3024C13.3462 23.67 15.2011 24.4384 17.1353 24.4384ZM17.1353 22.0074C15.8459 22.0074 14.6092 21.4952 13.6975 20.5834C12.7857 19.6717 12.2734 18.435 12.2734 17.1456C12.2734 15.8561 12.7857 14.6195 13.6975 13.7077C14.6092 12.7959 15.8459 12.2837 17.1353 12.2837C18.4248 12.2837 19.6614 12.7959 20.5732 13.7077C21.485 14.6195 21.9972 15.8561 21.9972 17.1456C21.9972 18.435 21.485 19.6717 20.5732 20.5834C19.6614 21.4952 18.4248 22.0074 17.1353 22.0074Z" fill="#595959"/>
</svg>
