<svg width="21" height="21" viewBox="0 0 21 21" fill="none" xmlns="http://www.w3.org/2000/svg">
<path d="M9.78185 16.9622L17.1779 9.56623C15.9336 9.04646 14.8036 8.28743 13.8519 7.33223C12.8962 6.38028 12.1368 5.24988 11.6169 4.00523L4.22086 11.4012C3.64386 11.9782 3.35485 12.2672 3.10685 12.5852C2.81425 12.9607 2.56312 13.3667 2.35786 13.7962C2.18486 14.1602 2.05585 14.5482 1.79785 15.3222L0.435855 19.4052C0.373169 19.5922 0.363868 19.7929 0.408999 19.9848C0.454129 20.1768 0.551902 20.3523 0.691326 20.4918C0.830751 20.6312 1.0063 20.729 1.19824 20.7741C1.39018 20.8192 1.59091 20.8099 1.77785 20.7472L5.86086 19.3852C6.63586 19.1272 7.02286 18.9982 7.38686 18.8252C7.81819 18.6199 8.22185 18.3702 8.59785 18.0762C8.91585 17.8282 9.20485 17.5392 9.78185 16.9622ZM19.2299 7.51423C19.9673 6.7768 20.3816 5.77662 20.3816 4.73373C20.3816 3.69084 19.9673 2.69067 19.2299 1.95323C18.4924 1.2158 17.4922 0.801514 16.4494 0.801514C15.4065 0.801514 14.4063 1.2158 13.6689 1.95323L12.7819 2.84023L12.8199 2.95123C13.2568 4.20201 13.9722 5.33722 14.9119 6.27123C15.8738 7.23905 17.0487 7.96848 18.3429 8.40123L19.2299 7.51423Z" fill="#595959"/>
</svg>
