<svg width="71" height="71" viewBox="0 0 71 71" fill="none" xmlns="http://www.w3.org/2000/svg">
<path d="M26.5629 43.6334C26.4571 43.8181 26.3119 43.9772 26.1378 44.0996C25.9636 44.222 25.7647 44.3046 25.5551 44.3416C25.3455 44.3786 25.1303 44.369 24.9248 44.3136C24.7193 44.2583 24.5284 44.1584 24.3658 44.0211L18.5849 39.1438C18.373 38.9658 18.2164 38.731 18.1335 38.467C18.0506 38.203 18.0447 37.9208 18.1168 37.6537C18.1888 37.3865 18.3356 37.1454 18.54 36.9589C18.7443 36.7723 18.9977 36.648 19.2703 36.6006L22.5724 36.0177L22.562 35.8545C22.5624 32.3919 23.7014 29.0256 25.8035 26.2741C27.9056 23.5226 30.8541 21.5387 34.1948 20.628C37.5354 19.7173 41.0829 19.9304 44.2905 21.2344C47.4982 22.5384 50.188 24.861 51.9456 27.8443C53.7033 30.8277 54.4311 34.3062 54.0171 37.7439C53.603 41.1816 52.07 44.3878 49.6543 46.8685C47.2385 49.3492 44.0741 50.9667 40.6486 51.4717C37.223 51.9768 33.7264 51.3415 30.6975 49.6636C30.5307 49.571 30.3837 49.4464 30.265 49.2969C30.1463 49.1475 30.0581 48.9761 30.0057 48.7926C29.9532 48.6092 29.9373 48.4171 29.9591 48.2275C29.9808 48.0379 30.0396 47.8544 30.1323 47.6876C30.2249 47.5207 30.3495 47.3737 30.4989 47.255C30.6484 47.1363 30.8197 47.0482 31.0032 46.9957C31.1867 46.9432 31.3787 46.9273 31.5684 46.9491C31.758 46.9708 31.9414 47.0297 32.1083 47.1223C34.5669 48.4836 37.4033 49.0034 40.1848 48.6023C42.9663 48.2013 45.5403 46.9015 47.5143 44.9011C49.4882 42.9007 50.7536 40.3096 51.1175 37.523C51.4815 34.7364 50.924 31.9072 49.5301 29.4669C48.1362 27.0267 45.9823 25.1094 43.3971 24.0074C40.8119 22.9054 37.9372 22.6793 35.2114 23.3635C32.4857 24.0476 30.0585 25.6046 28.3002 27.7968C26.5418 29.9891 25.5488 32.6963 25.4726 35.5056L28.8048 34.9147C29.0771 34.8662 29.3575 34.8964 29.6131 35.0018C29.8688 35.1071 30.089 35.2833 30.2481 35.5095C30.4071 35.7357 30.4982 36.0026 30.5107 36.2788C30.5233 36.555 30.4567 36.8291 30.3189 37.0688L26.5629 43.6334Z" fill="#057472"/>
<rect x="1.28548" y="1.27335" width="68.3941" height="68.3141" rx="34.157" stroke="#C6CAC6" stroke-width="2.44595"/>
</svg>
