<svg width="24" height="29" viewBox="0 0 24 29" fill="none" xmlns="http://www.w3.org/2000/svg">
<path d="M12.1693 2.52327C9.82827 2.52327 7.58308 3.45325 5.92769 5.10864C4.27231 6.76403 3.34232 9.00922 3.34232 11.3503C3.34232 14.9593 5.58943 18.4409 8.05595 21.1382C9.31713 22.5122 10.6932 23.7761 12.1693 24.9162C12.3896 24.7472 12.6481 24.5412 12.9449 24.2983C14.13 23.3251 15.2453 22.27 16.2827 21.1407C18.7493 18.4409 20.9964 14.9605 20.9964 11.3503C20.9964 9.00922 20.0664 6.76403 18.411 5.10864C16.7556 3.45325 14.5104 2.52327 12.1693 2.52327ZM12.1693 28.0132L11.4544 27.5214L11.4506 27.5189L11.443 27.5126L11.4178 27.4949L11.3232 27.4281L10.9827 27.1797C9.25751 25.8831 7.65479 24.4311 6.19471 22.8418C3.61722 20.0197 0.820312 15.9353 0.820312 11.349C0.820313 8.33908 2.01601 5.45241 4.14437 3.32405C6.27272 1.1957 9.15939 0 12.1693 0C15.1793 0 18.066 1.1957 20.1943 3.32405C22.3227 5.45241 23.5184 8.33908 23.5184 11.349C23.5184 15.9353 20.7215 20.0209 18.144 22.8393C16.6843 24.4285 15.082 25.8805 13.3572 27.1771C13.2135 27.2845 13.0685 27.39 12.9222 27.4937L12.8957 27.5113L12.8881 27.5176L12.8856 27.5189L12.1693 28.0132ZM12.1693 8.82828C11.5005 8.82828 10.859 9.09399 10.386 9.56696C9.91304 10.0399 9.64733 10.6814 9.64733 11.3503C9.64733 12.0192 9.91304 12.6606 10.386 13.1336C10.859 13.6066 11.5005 13.8723 12.1693 13.8723C12.8382 13.8723 13.4797 13.6066 13.9527 13.1336C14.4256 12.6606 14.6913 12.0192 14.6913 11.3503C14.6913 10.6814 14.4256 10.0399 13.9527 9.56696C13.4797 9.09399 12.8382 8.82828 12.1693 8.82828ZM7.12533 11.3503C7.12533 10.0125 7.65675 8.72957 8.60268 7.78363C9.54862 6.8377 10.8316 6.30628 12.1693 6.30628C13.5071 6.30628 14.7901 6.8377 15.736 7.78363C16.6819 8.72957 17.2134 10.0125 17.2134 11.3503C17.2134 12.688 16.6819 13.971 15.736 14.9169C14.7901 15.8629 13.5071 16.3943 12.1693 16.3943C10.8316 16.3943 9.54862 15.8629 8.60268 14.9169C7.65675 13.971 7.12533 12.688 7.12533 11.3503Z" fill="#595959"/>
</svg>
