<svg width="29" height="29" viewBox="0 0 29 29" fill="none" xmlns="http://www.w3.org/2000/svg">
<path d="M14.828 27.077C21.9419 27.077 27.7088 21.31 27.7088 14.1962C27.7088 7.08234 21.9419 1.31543 14.828 1.31543C7.71418 1.31543 1.94727 7.08234 1.94727 14.1962C1.94727 21.31 7.71418 27.077 14.828 27.077Z" stroke="#057472" stroke-width="2"/>
<path d="M24.8235 5.79954C23.6433 6.88797 22.1604 7.7703 20.4811 8.38536C18.8017 9.00041 16.9598 9.33531 15.0905 9.3643C13.2451 9.39485 11.4073 9.12012 9.65157 8.5512C7.93843 7.98767 6.41045 7.15042 5.17229 6.09902M25.0071 22.7683C23.8156 21.6155 22.294 20.68 20.5519 20.0328C18.7586 19.3743 16.864 19.0337 14.9536 19.0265C13.0402 19.0079 11.138 19.3205 9.33116 19.9507C7.57294 20.5722 6.02564 21.4851 4.80518 22.6186M14.828 1.31543V27.077M27.7088 14.1962H1.94727" stroke="#057472" stroke-width="2"/>
</svg>
