<svg width="37" height="32" viewBox="0 0 37 32" fill="none" xmlns="http://www.w3.org/2000/svg">
<path d="M8.56291 23.6334C8.45708 23.818 8.31194 23.9772 8.13779 24.0996C7.96364 24.2219 7.76472 24.3046 7.55511 24.3415C7.34549 24.3785 7.13031 24.369 6.92479 24.3136C6.71927 24.2583 6.52843 24.1584 6.36578 24.0211L0.584884 19.1438C0.373024 18.9658 0.216414 18.731 0.133482 18.467C0.0505501 18.203 0.0447481 17.9208 0.116758 17.6536C0.188768 17.3865 0.335594 17.1454 0.539958 16.9589C0.744322 16.7723 0.99772 16.648 1.27033 16.6006L4.57241 16.0177L4.562 15.8545C4.56241 12.3919 5.7014 9.02556 7.80348 6.27407C9.90557 3.52257 12.8541 1.53864 16.1948 0.627949C19.5354 -0.282743 23.0829 -0.0696601 26.2905 1.23436C29.4982 2.53839 32.188 4.86099 33.9456 7.84432C35.7033 10.8277 36.4311 14.3062 36.0171 17.7439C35.603 21.1816 34.07 24.3878 31.6543 26.8685C29.2385 29.3492 26.0741 30.9666 22.6486 31.4717C19.223 31.9768 15.7264 31.3415 12.6975 29.6636C12.5307 29.5709 12.3837 29.4464 12.265 29.2969C12.1463 29.1475 12.0581 28.9761 12.0057 28.7926C11.9532 28.6091 11.9373 28.4171 11.9591 28.2275C11.9808 28.0379 12.0396 27.8544 12.1323 27.6875C12.2249 27.5207 12.3495 27.3737 12.4989 27.255C12.6484 27.1363 12.8197 27.0481 13.0032 26.9957C13.1867 26.9432 13.3787 26.9273 13.5684 26.9491C13.758 26.9708 13.9414 27.0296 14.1083 27.1223C16.5669 28.4836 19.4033 29.0033 22.1848 28.6023C24.9663 28.2013 27.5403 26.9014 29.5143 24.9011C31.4882 22.9007 32.7536 20.3096 33.1175 17.523C33.4815 14.7364 32.924 11.9072 31.5301 9.46692C30.1362 7.02669 27.9823 5.10936 25.3971 4.00738C22.8119 2.9054 19.9372 2.67925 17.2114 3.36344C14.4857 4.04762 12.0585 5.60458 10.3002 7.79683C8.54184 9.98909 7.54881 12.6963 7.47256 15.5056L10.8048 14.9147C11.0771 14.8662 11.3575 14.8964 11.6131 15.0018C11.8688 15.1071 12.089 15.2832 12.2481 15.5095C12.4071 15.7357 12.4982 16.0026 12.5107 16.2788C12.5233 16.555 12.4567 16.8291 12.3189 17.0688L8.56291 23.6334Z" fill="#057472"/>
</svg>
